<svg width="36" height="22" xmlns="http://www.w3.org/2000/svg" xmlns:xlink="http://www.w3.org/1999/xlink" overflow="hidden"><defs><clipPath id="clip0"><rect x="916" y="20" width="36" height="22"/></clipPath><clipPath id="clip1"><rect x="916" y="20" width="36" height="21"/></clipPath><clipPath id="clip2"><rect x="916" y="20" width="36" height="21"/></clipPath><clipPath id="clip3"><rect x="916" y="20" width="36" height="21"/></clipPath></defs><g clip-path="url(#clip0)" transform="translate(-916 -20)"><g clip-path="url(#clip1)"><g clip-path="url(#clip2)"><g clip-path="url(#clip3)"><path d="M35.0526 20.7909 0.947368 20.7909C0.424151 20.7909 -1.05179e-16 20.3668 -1.05179e-16 19.8436 -3.15537e-16 19.3204 0.424151 18.8962 0.947368 18.8962L35.0526 18.8962C35.5758 18.8962 36 19.3204 36 19.8436 36 20.3668 35.5758 20.7909 35.0526 20.7909ZM35.0526 11.3419 0.947368 11.3419C0.424151 11.3419 -1.05179e-16 10.9177 -1.05179e-16 10.3945 -3.15537e-16 9.87131 0.424151 9.44716 0.947368 9.44716L35.0526 9.44716C35.5758 9.44716 36 9.87131 36 10.3945 36 10.9177 35.5758 11.3419 35.0526 11.3419ZM35.0526 1.89474 0.947368 1.89474C0.424151 1.89474 -1.05179e-16 1.47059 -1.05179e-16 0.947368 -3.15537e-16 0.424151 0.424151 -1.05179e-16 0.947368 -1.05179e-16L35.0526 0C35.5758 -2.10358e-16 36 0.424151 36 0.947368 36 1.47059 35.5758 1.89474 35.0526 1.89474Z" fill="#F7526C" transform="matrix(1 0 0 1.00758 916 20)"/></g></g></g></g></svg>