<svg width="754" height="791" xmlns="http://www.w3.org/2000/svg" xmlns:xlink="http://www.w3.org/1999/xlink" overflow="hidden"><defs><clipPath id="clip0"><rect x="163" y="145" width="754" height="791"/></clipPath><clipPath id="clip1"><rect x="164" y="145" width="752" height="790"/></clipPath><clipPath id="clip2"><rect x="164" y="145" width="752" height="790"/></clipPath><clipPath id="clip3"><rect x="164" y="145" width="752" height="790"/></clipPath></defs><g clip-path="url(#clip0)" transform="translate(-163 -145)"><g clip-path="url(#clip1)"><g clip-path="url(#clip2)"><g clip-path="url(#clip3)"><path d="M509.004 388.806 451.839 399.025 451.192 393.711C453.382 393.939 455.62 394.096 457.962 394.096 460.745 394.096 463.638 393.934 466.634 393.611 466.673 393.607 466.713 393.6 466.752 393.592 467.072 393.524 490.515 388.232 503.9 367.072 503.643 368.615 503.469 370.183 503.469 371.792 503.469 378.071 505.515 383.906 509.004 388.806ZM526.811 414.762 523.698 400.315C519.636 398.643 516.001 396.276 512.965 393.371 512.474 392.901 511.988 392.427 511.529 391.93 511.222 391.597 510.939 391.247 510.647 390.903L510.177 390.987 502.514 392.357 504.147 401.792 504.349 402.957 504.551 404.121 507.665 422.115C513.715 420.312 520.109 417.901 526.811 414.762ZM529.139 416.273C512.186 424.41 497.102 427.921 484.426 428.914 484.265 429.028 484.085 429.117 483.875 429.138 483.836 429.142 483.797 429.143 483.758 429.143 483.565 429.143 483.389 429.083 483.226 428.998 480.887 429.154 478.622 429.236 476.456 429.236 457.673 429.236 445.545 423.903 442.276 422.272 441.902 422.27 441.542 422.091 441.319 421.773L441.291 421.734C441.049 421.565 440.88 421.327 440.815 421.056L402.641 366.813C402.524 366.645 402.452 366.451 402.433 366.248L393.003 268.597 389.358 230.848C384.354 226.109 379.546 221.559 375.143 217.395L342.681 220.744C342.637 220.865 342.584 220.984 342.502 221.087L329.973 236.559 333.074 376.117C335.294 376.432 337.662 377.314 340.167 378.766 340.432 378.772 340.698 378.852 340.915 379.04 340.963 379.082 341.177 379.271 341.501 379.565 341.502 379.566 341.503 379.566 341.505 379.567 342.703 378.169 345.355 375.746 349.405 375.649 351.442 375.617 353.534 376.177 355.67 377.305 359.61 379.385 363.705 383.426 367.91 389.457 375.188 399.893 376.206 415.806 370.775 434.265 368.088 443.399 364.314 451.669 360.415 458.34 368.69 468.475 379.546 480.291 393.757 493.778L414.365 442.659C414.607 442.057 415.295 441.765 415.896 442.008 416.499 442.251 416.79 442.937 416.547 443.54L395.52 495.697C395.611 496.007 395.589 496.347 395.412 496.638 395.304 496.815 384.613 514.665 383.406 543.283 383.296 545.88 383.269 548.625 383.339 551.5 383.981 577.871 393.151 615.555 428.809 657.586 428.848 657.623 437.125 666.103 458.418 669.327 480.56 672.681 505.933 668.858 529.352 662.585L535.496 654.322 537.477 541.822 537.617 533.842 537.326 532.076 521.418 533.231C521.379 533.235 521.34 533.236 521.301 533.236 520.476 533.236 519.777 532.597 519.717 531.76 519.695 531.457 519.784 531.181 519.914 530.929 519.142 526.753 514.936 502.418 516.227 474.278 517.273 451.473 521.66 431.954 529.139 416.273ZM482.452 426.708 480.848 410.511 480.73 409.325 480.613 408.137 479.458 396.479 460.068 399.945 461.126 413.391 461.22 414.585 461.314 415.778 462.014 424.684C462.046 425.092 461.852 425.451 461.553 425.686 467.353 426.653 474.364 427.202 482.452 426.708ZM530.492 413.612C532.424 409.856 534.533 406.323 536.837 403.048 533.151 402.957 529.618 402.334 526.31 401.263L528.997 413.734C529.128 413.671 529.255 413.616 529.386 413.552 529.755 413.37 530.162 413.418 530.492 413.612ZM458.908 415.208 458.814 414.014 457.74 400.361 452.124 401.365 450.964 401.572 449.804 401.78 442.902 403.013 443.432 420.224C445.495 421.246 451.164 423.745 459.847 425.38 459.753 425.227 459.682 425.06 459.667 424.869L459.001 416.401 458.908 415.208ZM483.034 408.704 483.151 409.89 484.799 426.523C491.082 425.995 497.964 424.836 505.391 422.775L502.269 404.737 502.067 403.572 501.865 402.408 500.198 392.771 481.782 396.063 482.916 407.516 483.034 408.704ZM343.856 88.2233C344.491 87.898 345.211 87.6487 346.051 87.5376 346.855 87.4316 348.573 87.2113 350.271 88.1311 350.132 81.2517 347.563 80.2975 347.535 80.2881 347.389 80.2402 347.259 80.1643 347.146 80.0708 346.15 79.7241 345.318 79.6997 344.683 80.0335 343.8 80.496 343.367 81.5548 343.184 82.1507 343.664 83.2008 344.069 85.0404 343.856 88.2233ZM340.726 91.6224C340.858 91.3196 341.03 91.0077 341.221 90.6965 341.857 86.3883 341.474 84.313 341.144 83.4002 340.328 83.1848 339.597 83.2902 338.882 83.7655 337.022 85 335.595 88.2141 334.516 92.1087 334.927 91.7757 335.38 91.4719 335.922 91.2627 337.369 90.7048 338.98 90.8254 340.726 91.6224ZM356.659 85.2095C357.281 81.8673 356.481 80.3355 356.472 80.3196 356.371 80.1389 356.339 79.9431 356.337 79.7477 355.492 78.7705 354.576 78.219 353.6 78.1322 352.225 78.013 350.937 78.7565 350.126 79.3661 351.286 80.6655 352.517 83.1952 352.622 88.0617 353.403 86.5833 354.673 85.4093 356.659 85.2095ZM363.912 90.9031C364.142 90.043 364.474 89.2161 364.947 88.5188 364.904 84.6229 364.069 81.9926 362.495 81.0143 361.294 80.269 359.842 80.608 359.085 80.8714 359.289 81.9168 359.362 83.4467 358.993 85.5042 360.637 86.0914 362.39 87.6012 363.912 90.9031ZM353.279 202.834 353.851 197.272C352.953 196.424 352.428 195.928 352.363 195.867 352.328 195.835 352.296 195.8 352.266 195.764 352.054 195.509 347.043 189.439 344.64 183.11 344.126 181.756 342.746 178.968 340.999 175.438 332.471 158.205 324.456 140.899 328.177 135.144 329.497 133.104 331.017 132.148 332.697 132.275 334.182 132.395 335.523 133.406 336.752 134.885 336.764 134.88 336.77 134.87 336.782 134.865 336.855 134.835 336.931 134.836 337.006 134.821 335.226 126.999 332.9 115.776 331.986 107.024 331.808 108.906 331.696 110.56 331.641 111.812 331.619 112.311 331.284 112.742 330.806 112.886 330.327 113.033 329.81 112.857 329.515 112.454 328.459 111.01 327.681 110.596 327.298 110.694 326.185 110.977 325.013 114.36 324.615 117.342 321.551 156.646 304.725 188.163 304.556 188.477 304.475 188.626 304.363 188.756 304.227 188.858 304.223 188.862 304.218 188.866 304.213 188.869L336.953 215.122C351.672 212.757 353.221 203.239 353.279 202.834ZM343.802 468.814 348.043 470.923 349.262 469.599C351.85 467.003 354.707 463.179 357.497 458.563 357.717 458.198 357.938 457.838 358.158 457.464 358.372 457.097 358.585 456.717 358.798 456.341 369.368 437.732 378.144 408.245 365.98 390.803 362.26 385.469 358.625 381.755 355.223 379.748 353.28 378.601 351.411 378 349.651 378 349.597 378 349.544 378 349.49 378.002 346.208 378.068 344.09 380.13 343.218 381.183 345.779 383.675 349.953 388.066 353.062 392.961 353.389 393.476 353.705 393.996 354.006 394.521 354.329 395.085 354.133 395.804 353.57 396.127 353.385 396.233 353.184 396.283 352.986 396.283 352.844 396.283 352.714 396.225 352.582 396.176 352.333 396.083 352.106 395.939 351.964 395.691 348.344 389.368 342.242 383.456 340.125 381.5 337.602 379.879 335.264 378.879 333.127 378.507 332.726 378.437 332.333 378.391 331.946 378.365 331.548 378.339 331.154 378.327 330.771 378.348 329.909 378.394 329.081 378.54 328.299 378.823 324.482 380.208 322.479 384.147 321.689 386.126 323.715 386.757 326.906 388.065 331.046 390.733 331.435 390.983 331.834 391.251 332.239 391.526 332.632 391.793 333.026 392.061 333.434 392.352 334.599 393.183 335.819 394.106 337.101 395.151 337.605 395.561 337.68 396.303 337.27 396.807 337.038 397.092 336.699 397.24 336.357 397.24 336.096 397.24 335.833 397.153 335.614 396.976 334.888 396.384 334.187 395.84 333.5 395.322 333.094 395.016 332.696 394.724 332.303 394.442 331.896 394.149 331.502 393.876 331.11 393.608 325.822 389.993 321.996 388.625 320.169 388.138 320.055 388.141 319.94 388.145 319.828 388.114 316.271 387.132 313.494 387.441 311.574 389.034 308.396 391.671 308.127 397.167 308.155 399.376 311.415 399.667 316.386 400.731 323.615 403.702 324.217 403.949 324.504 404.637 324.256 405.238 324.07 405.693 323.631 405.968 323.168 405.968 323.019 405.968 322.867 405.939 322.721 405.879 308.909 400.204 303.867 401.885 303.819 401.903 303.697 401.947 303.574 401.955 303.451 401.958 302.533 402.349 301.685 402.987 300.901 403.893 296.174 409.352 295.31 422.509 297.721 430.183 298.38 432.283 299.54 433.652 301.268 434.367 304.858 435.85 309.908 434.131 312.376 433.095 304.244 425.544 303.987 418.798 303.98 418.49 303.968 417.841 304.484 417.303 305.133 417.29 305.763 417.294 306.317 417.789 306.333 418.437 306.337 418.525 306.679 425.683 316.138 433.245 316.645 433.651 316.728 434.391 316.322 434.899 316.09 435.19 315.748 435.341 315.403 435.341 315.145 435.341 314.885 435.257 314.668 435.083 314.663 435.079 314.658 435.075 314.652 435.07 306.96 445.038 314.043 451.447 314.359 451.722 314.664 451.988 314.815 452.395 314.753 452.793L314.525 454.254 343.802 468.814ZM430.991 357.76C433.155 361.165 438.946 367.443 451.838 366.349 465.747 365.168 472.412 356.054 474.757 351.899 462.563 357.802 452.352 359.685 444.325 359.685 438.839 359.685 434.387 358.811 430.991 357.76ZM450.429 294.831C450.06 295.366 450.194 296.098 450.728 296.469 450.933 296.609 451.166 296.677 451.396 296.677 451.77 296.677 452.137 296.5 452.366 296.17 452.45 296.047 453.398 294.729 455.264 293.778 460.35 298.108 467.69 301.714 473.68 304.213 475.2 325.558 482.489 339.025 495.502 344.334 495.858 344.494 500.805 346.647 509.31 347.128 508.395 351.617 507.062 355.684 505.402 359.342 505.14 359.92 504.86 360.477 504.583 361.036 504.291 361.624 503.992 362.202 503.685 362.768 491.533 385.138 467.628 390.976 466.315 391.278 460.796 391.869 455.656 391.892 450.905 391.353 450.496 391.306 450.101 391.241 449.699 391.186 449.296 391.131 448.89 391.082 448.493 391.019 439.196 389.542 431.483 385.786 425.461 379.764 406.96 361.267 410.385 327.282 410.422 326.941 410.434 326.823 410.429 326.703 410.406 326.586 407.027 309.548 405.28 285.83 416.152 269.595 418.233 266.487 420.473 264.131 422.557 262.355 437.773 276.836 450.251 288.796 453.233 291.887 453.318 291.975 453.411 292.061 453.498 292.148 451.495 293.362 450.453 294.795 450.429 294.831ZM428.155 299.067C428.717 299.393 429.438 299.201 429.763 298.638 430.089 298.076 429.897 297.356 429.334 297.03 417.768 290.334 411.79 298.709 411.731 298.795 411.361 299.33 411.495 300.062 412.029 300.433 412.234 300.573 412.467 300.641 412.698 300.641 413.071 300.641 413.438 300.464 413.667 300.134 413.857 299.858 418.449 293.447 428.155 299.067ZM422.257 318.107C423.714 318.107 424.895 316.926 424.895 315.47 424.895 314.013 423.714 312.832 422.257 312.832 420.801 312.832 419.62 314.013 419.62 315.47 419.62 316.926 420.801 318.107 422.257 318.107ZM459.049 309.38C459.049 310.836 460.229 312.017 461.686 312.017 463.142 312.017 464.323 310.836 464.323 309.38 464.323 307.923 463.142 306.742 461.686 306.742 460.229 306.742 459.049 307.923 459.049 309.38ZM446.94 351.332C437.837 347.032 429.161 352.044 426.867 353.564 425.384 352.85 424.593 352.305 424.545 352.271 424.018 351.889 423.283 352.007 422.902 352.532 422.52 353.057 422.637 353.793 423.163 354.176 423.386 354.338 424.935 355.425 427.732 356.591 427.902 357.029 429.227 360.233 432.72 363.283 435.717 365.901 440.88 368.827 448.986 368.827 449.96 368.827 450.977 368.785 452.036 368.695 471.217 367.065 477.905 350.89 477.97 350.727 478.034 350.565 478.055 350.399 478.047 350.236 479.136 349.66 480.235 349.062 481.354 348.421 481.917 348.098 482.112 347.379 481.789 346.815 481.466 346.251 480.749 346.056 480.182 346.379 478.882 347.124 477.609 347.809 476.35 348.463 459.589 343.27 449.499 349.442 446.94 351.332ZM436.925 339.191C434.331 337.625 432.004 334.137 433.982 329.467 438.513 318.764 435.769 306.246 435.65 305.718 435.507 305.085 434.874 304.689 434.244 304.829 433.61 304.972 433.212 305.602 433.354 306.236 433.382 306.358 436.045 318.556 431.814 328.548 429.414 334.218 432.04 338.99 435.708 341.206 437.375 342.213 439.445 342.817 441.668 342.817 445.299 342.817 449.336 341.206 452.685 337.116 453.097 336.613 453.023 335.871 452.521 335.46 452.017 335.048 451.275 335.122 450.865 335.625 446.327 341.166 440.593 341.408 436.925 339.191ZM429.572 354.705C436.861 357.403 451.87 360.136 473.181 350.037 456.847 345.955 447.953 353.52 447.86 353.6 447.495 353.922 446.968 353.985 446.537 353.76 439.691 350.176 432.786 352.956 429.572 354.705ZM478.736 249.505C478.54 249.345 478.342 249.182 478.133 249.012L478.4 251.157C478.512 250.604 478.623 250.052 478.736 249.505ZM348.268 159.367C348.519 159.967 348.235 160.656 347.635 160.906 347.487 160.968 347.334 160.997 347.183 160.997 346.722 160.997 346.284 160.724 346.096 160.273L339.614 144.719C339.483 144.607 339.368 144.476 339.295 144.308L339.139 143.952C336.5 137.904 334.268 134.764 332.506 134.621 331.752 134.556 330.966 135.165 330.154 136.422 326.848 141.535 337.83 163.729 343.109 174.394 344.884 177.981 346.285 180.814 346.841 182.275 348.988 187.933 353.541 193.603 354.033 194.207 354.06 194.232 354.11 194.279 354.154 194.321 354.349 194.506 354.713 194.849 355.231 195.338 355.539 195.629 355.896 195.965 356.309 196.356 359.814 199.666 366.998 206.451 375.976 214.943 376.35 215.297 376.723 215.65 377.104 216.009 377.476 216.361 377.853 216.718 378.231 217.076 381.637 220.298 385.259 223.726 389.014 227.281 389.445 227.689 389.88 228.101 390.315 228.513 390.747 228.922 391.18 229.332 391.616 229.745 398.35 236.123 405.413 242.819 412.292 249.35 415.828 252.708 419.313 256.02 422.68 259.223 422.971 259.5 423.262 259.777 423.552 260.052 423.842 260.329 424.132 260.605 424.42 260.879 439.554 275.285 451.946 287.163 454.927 290.253 455.198 290.533 455.511 290.804 455.804 291.08 456.472 291.706 457.187 292.319 457.958 292.918 462.416 296.38 468.368 299.359 473.541 301.574 473.536 301.471 473.53 301.371 473.525 301.268 473.498 300.676 473.451 300.112 473.433 299.509 473.416 298.957 473.418 298.379 473.408 297.818 473.397 297.179 473.402 296.519 473.399 295.869 472.694 295.842 471.985 295.787 471.281 295.687 470.547 295.582 469.831 295.42 469.143 295.211 468.842 295.119 468.55 295.014 468.263 294.898 466.694 294.265 465.372 293.282 464.642 291.742 464.597 291.648 464.583 291.541 464.545 291.444 464.406 291.089 464.311 290.714 464.262 290.319 464.199 289.812 464.217 289.268 464.303 288.694 464.67 286.237 466.371 283.174 469.504 279.401 471.428 277.084 473.436 275.05 474.768 273.762 474.846 273.102 474.899 272.475 474.983 271.807 475.497 267.72 476.116 263.67 476.798 259.718L475.235 247.165C475.214 246.994 475.232 246.828 475.272 246.671 469.582 242.014 461.21 235.157 452.122 227.696 430.365 209.836 404.655 188.638 402.63 186.547 401.751 185.639 400.985 184.986 400.244 184.353 398.098 182.523 396.404 181.077 394.333 175.573 392.687 171.201 387.369 149.475 382.677 130.307 379.763 118.406 377.247 108.128 376.461 105.538 376.122 104.422 375.785 103.196 375.437 101.928 373.943 96.4875 371.897 89.0373 368.651 88.9115 368.091 88.898 367.663 89.0687 367.289 89.4098 367.251 89.4446 367.204 89.4552 367.167 89.4941 365.666 91.0841 365.703 95.3572 365.834 96.7287 365.843 96.8216 365.821 96.9082 365.809 96.997L366.307 98.9819 373.627 128.163C373.786 128.793 373.403 129.432 372.772 129.59 372.676 129.614 372.58 129.626 372.485 129.626 371.958 129.626 371.479 129.27 371.345 128.735L365.602 105.844 364.766 102.509 363.927 99.1648 362.768 94.5442C362.76 94.5151 362.769 94.487 362.764 94.4579 361.754 91.3632 360.123 88.0155 357.71 87.5885 357.677 87.5913 357.647 87.6049 357.613 87.6049 357.52 87.6049 357.426 87.594 357.331 87.571 357.316 87.5673 357.306 87.5562 357.291 87.5519 357.167 87.5477 357.047 87.5331 356.919 87.5445 354.191 87.7963 353.888 91.5998 353.867 92.9548 354.899 96.6859 358.909 111.32 361.506 122.737 361.795 124.008 362.064 125.233 362.312 126.403 362.546 127.512 362.762 128.573 362.949 129.559 363.07 130.197 362.651 130.813 362.013 130.934 361.956 130.945 361.9 130.947 361.845 130.95 361.827 130.95 361.809 130.955 361.792 130.955 361.328 130.955 360.922 130.672 360.734 130.252 360.697 130.17 360.655 130.09 360.637 129.998 358.582 119.175 353.313 99.8029 351.778 94.229 351.686 94.1149 351.613 93.9842 351.569 93.8369 350.323 89.7074 348.227 89.6258 346.36 89.8705 343.872 90.1998 342.988 92.1539 342.706 93.0607 345.279 96.9183 348.663 109.947 352.803 131.994 352.923 132.633 352.502 133.247 351.863 133.367 351.79 133.381 351.717 133.388 351.645 133.388 351.09 133.388 350.596 132.993 350.489 132.428 344.882 102.565 341.827 95.8306 340.894 94.3646 340.864 94.3491 340.828 94.3522 340.799 94.3339 339.203 93.3381 337.848 93.0423 336.769 93.4588 335.064 94.1162 334.38 96.3812 334.373 96.4041 332.287 103.065 337.832 128.935 341.263 142.559L348.268 159.367ZM466.768 290.733C467.714 292.727 470.496 293.421 473.389 293.534 473.453 288.533 473.785 283.169 474.36 277.477 469.906 282.118 465.484 288.026 466.768 290.733ZM393.428 747.214C393.428 747.492 393.667 747.815 394.101 748.159 404.11 746.41 417.091 744.828 429.627 743.519 426.06 742.814 421.422 742.314 415.759 742.314 401.31 742.314 393.428 745.551 393.428 747.214ZM347.48 473.272 346.382 472.726 343.541 471.313 314.146 456.694 313.041 456.144 311.935 455.594 307.133 453.206 262.144 521.216C262.011 521.418 261.821 521.562 261.608 521.65L242.033 554.693C241.814 555.065 241.422 555.27 241.02 555.27 240.816 555.27 240.609 555.217 240.421 555.106 239.862 554.775 239.677 554.053 240.008 553.494L259.962 519.81C256.534 404.759 237.333 373.693 225.543 365.567 208.272 386.274 192.507 397.69 189.568 399.732 195.137 427.378 206.189 496.649 195.927 577.492L167.905 626.254 139.884 583.449C139.884 583.449 164.55 489.779 153.479 423.877L77.6032 474.62C77.4026 474.754 77.1751 474.819 76.9504 474.819 76.5707 474.819 76.1984 474.636 75.9714 474.296 75.61 473.756 75.7547 473.025 76.2954 472.664L187.732 398.14C187.911 398.021 205.238 386.414 224.261 363.434 224.295 363.371 224.311 363.3 224.357 363.243L327.601 235.748 328.747 234.333 329.892 232.919 339.483 221.074 339.929 220.524 339.179 219.922 337.872 218.874 336.328 217.636 335.127 216.673 333.939 215.721 302.273 190.33 301.326 189.571 300.376 188.809 294.165 183.828 158.646 320.438C158.626 320.465 158.597 320.484 158.575 320.51L157.745 321.346C157.553 321.54 157.299 321.661 157.027 321.688L156.615 321.73 57.6972 378.882C57.5115 378.989 57.3093 379.04 57.1094 379.04 56.7026 379.04 56.3073 378.829 56.0895 378.452 55.7643 377.889 55.9567 377.169 56.5192 376.844L150.926 322.298 144.444 322.947C140.72 325.437 127.679 333.148 108.995 333.149 101.891 333.149 93.9775 332.023 85.4577 329.074L56.44 338.112 62.2525 353.567C62.3416 353.803 62.3519 354.062 62.2824 354.305L62.1353 354.82C62.0854 354.995 61.9951 355.156 61.8716 355.291 32.6876 387.154 17.5167 456.895 17.9995 556.974 18.3459 628.766 26.6728 692.725 27.6249 699.802 93.1912 729.001 143.79 726.549 174.72 719.328 205.639 712.11 223.592 698.83 226.409 696.634L230.018 635.855C230.044 635.412 230.319 635.02 230.728 634.844 230.844 634.794 230.968 634.808 231.09 634.797 239.902 430.51 215.498 388.125 215.25 387.72 214.911 387.167 215.083 386.443 215.634 386.103 216.186 385.762 216.908 385.93 217.251 386.481 218.283 388.142 242.412 429.521 233.389 636.151 239.972 641.268 246.593 643.485 253.087 642.67 264.182 641.275 271.241 631.551 271.311 631.454L341.49 523.09 367.353 483.156 348.576 473.817 347.48 473.272ZM34.2074 303.596C31.0759 297.422 30.8972 291.872 33.7034 287.968 36.1903 284.508 40.9111 282.734 45.7273 283.432 51.6669 284.3 56.3325 288.439 58.528 294.788 58.6579 295.163 58.9681 295.447 59.3525 295.545 59.7375 295.643 60.1454 295.538 60.4374 295.269 60.8666 294.875 70.9419 285.463 70.2117 273.877 69.8606 268.306 67.0652 263.234 61.8911 258.765 68.0001 258.696 80.4239 257.381 89.6253 248.697 97.0893 241.653 100.744 231.306 100.499 217.926 104.917 219.217 116.922 221.498 122.511 210.421 124.564 211.551 129.534 214.763 135.147 221.782 139.466 227.183 144.165 234.835 148.212 245.542 148.258 245.661 148.321 245.772 148.402 245.87 148.486 245.974 156.894 256.384 160.531 270.759 165.38 289.926 159.824 306.625 144.069 320.348 144.051 320.361 143.895 320.478 143.634 320.662 143.212 320.959 142.492 321.445 141.471 322.061 140.761 322.49 139.899 322.979 138.917 323.499 130.716 327.839 113.295 334.442 90.9168 328.299 89.9327 328.029 88.94 327.736 87.9371 327.415 87.1255 327.155 86.3132 326.894 85.4898 326.599 85.4881 326.599 85.4865 326.598 85.4848 326.598 85.3572 326.552 85.2233 326.529 85.089 326.529 84.9878 326.529 84.8867 326.542 84.7878 326.568L69.8049 330.536 66.8348 320.254 65.8287 316.771C65.7311 316.434 65.4886 316.159 65.1673 316.019 64.8449 315.879 64.4778 315.89 64.1659 316.048 63.3965 316.437 45.2188 325.304 34.2074 303.596ZM102.219 266.634C102.697 267.122 103.362 267.425 104.099 267.425 105.555 267.425 106.736 266.245 106.736 264.788 106.736 263.681 106.052 262.736 105.085 262.345 104.78 262.222 104.448 262.151 104.099 262.151 102.642 262.151 101.462 263.331 101.462 264.788 101.462 265.508 101.752 266.159 102.219 266.634ZM104.661 297.575C104.015 297.527 103.441 297.994 103.382 298.641 103.324 299.288 103.801 299.861 104.448 299.919 106.803 300.133 109.044 300.231 111.181 300.231 125.901 300.231 135.537 295.539 141.24 291.291 148.377 285.975 151.048 280.284 151.158 280.044 151.429 279.454 151.171 278.757 150.582 278.486 149.991 278.211 149.294 278.471 149.021 279.059 148.611 279.942 138.594 300.654 104.661 297.575ZM138.763 249.98C138.763 248.523 137.582 247.342 136.126 247.342 134.669 247.342 133.488 248.523 133.488 249.98 133.488 251.436 134.669 252.617 136.126 252.617 137.582 252.617 138.763 251.436 138.763 249.98ZM129.629 229.795C124.416 232.345 122.494 238.522 122.414 238.783 122.226 239.406 122.577 240.062 123.199 240.251 123.313 240.285 123.428 240.302 123.541 240.302 124.046 240.302 124.513 239.974 124.667 239.466 124.683 239.411 126.361 234.014 130.664 231.909 132.939 230.796 135.594 230.808 138.553 231.946 139.159 232.179 139.84 231.877 140.074 231.269 140.306 230.663 140.004 229.982 139.397 229.748 135.803 228.368 132.517 228.384 129.629 229.795ZM115.356 246.335C115.375 246.376 115.444 246.521 115.536 246.708 116.54 248.755 121.868 258.911 131.129 264.167 135.541 266.671 135.815 270.854 134.71 273.675 133.146 277.666 128.449 280.961 121.476 279.326 120.846 279.177 120.211 279.57 120.062 280.203 119.914 280.835 120.306 281.468 120.939 281.617 122.352 281.949 123.692 282.1 124.953 282.1 131.096 282.1 135.349 278.497 136.901 274.534 138.464 270.544 137.645 265.159 132.291 262.12 122.853 256.764 117.546 245.462 117.493 245.349 117.359 245.059 117.121 244.854 116.846 244.748 116.559 244.638 116.232 244.637 115.931 244.774 115.342 245.046 115.084 245.745 115.356 246.335ZM88.2813 261.762C88.2291 262.409 88.7112 262.975 89.3582 263.028 89.391 263.03 89.423 263.032 89.4553 263.032 90.0609 263.032 90.5757 262.566 90.6269 261.952 90.632 261.887 91.2112 255.501 95.566 251.983 97.9741 250.037 101.134 249.299 104.962 249.798 105.598 249.879 106.197 249.426 106.28 248.782 106.364 248.137 105.909 247.547 105.264 247.464 100.767 246.883 97.0025 247.791 94.0721 250.165 88.933 254.329 88.3055 261.46 88.2813 261.762ZM38.245 298.225C38.6041 298.761 39.3338 298.903 39.8728 298.549 40.0169 298.455 42.1577 297.134 45.8978 297.951 45.2381 299.487 44.4908 302.018 45.1775 304.664 45.8141 307.116 47.5188 309.103 50.2453 310.567 50.4222 310.663 50.6131 310.707 50.801 310.707 51.2204 310.707 51.6266 310.483 51.8386 310.087 52.1461 309.515 51.9317 308.801 51.3589 308.494 49.2398 307.355 47.9274 305.873 47.4592 304.088 46.9014 301.96 47.6256 299.838 48.1614 298.663 50.206 299.485 52.5819 300.906 55.2747 303.329 55.4999 303.531 55.7809 303.631 56.0614 303.631 56.3836 303.631 56.7043 303.499 56.9364 303.241 57.3714 302.758 57.3323 302.014 56.8491 301.579 53.699 298.745 50.8823 297.14 48.4428 296.259 48.3889 296.208 48.3481 296.146 48.2832 296.105 48.0428 295.951 47.7697 295.911 47.5074 295.943 42.0409 294.322 38.7502 296.466 38.5507 296.602 38.0186 296.967 37.8848 297.69 38.245 298.225ZM683.821 409.676C669.347 372.447 657.333 357.35 652.655 352.437 638.607 356.853 627.239 350.664 627.239 350.664 625.868 352.303 624.155 353.78 622.195 355.062 616.262 359.54 608.65 362.233 600.348 362.233 591 362.233 582.536 358.811 576.349 353.278L568.65 358.235 562.529 362.177 543.431 374.474 549.729 381.526 550.649 382.557 551.57 383.588 553.96 386.265 554.281 386.625C554.5 386.87 554.607 387.197 554.575 387.525 554.542 387.852 554.374 388.152 554.111 388.349 554.099 388.358 554.088 388.368 554.076 388.377 548.494 392.579 543.753 397.526 539.721 403.001 508.439 445.477 520.357 520.005 522.137 529.991L561.649 527.122 562.823 527.037 563.997 526.952 610.908 523.546 613.286 523.374C614.156 523.287 614.924 523.969 614.987 524.844 615.051 525.72 614.392 526.482 613.516 526.545L611.843 526.667 600.057 527.522 599.265 538.413 590.073 664.826C590.053 665.091 589.945 665.342 589.765 665.537L565.971 691.428 571.016 722.042C629.915 733.371 673.43 725.101 699.607 716.142 725.286 707.353 739.729 696.21 742.43 694.007 732.881 608.397 714.975 489.812 683.821 409.676ZM596.895 538.543 597.684 527.695 564.17 530.128 562.996 530.213 561.822 530.298 540.006 531.882 539.975 533.671 539.859 540.21 539.833 541.692 539.744 546.749 537.843 654.742C537.838 654.988 537.757 655.226 537.61 655.423L533.037 661.573 531.852 663.165 530.761 664.633 473.505 741.625C473.3 741.9 472.986 742.072 472.644 742.097 463.481 742.748 451.577 743.714 439.32 744.894 438.784 744.946 438.245 744.999 437.706 745.052 437.01 745.12 436.314 745.187 435.616 745.256 422.088 746.599 408.426 748.186 397.8 749.882 396.999 750.01 396.224 750.139 395.458 750.268 394.825 750.375 394.216 750.482 393.61 750.59 386.116 751.918 380.663 753.298 378.745 754.671 378.703 754.701 378.658 754.728 378.614 754.752 377.795 755.19 375.468 756.775 375.51 758.257 375.536 759.177 376.586 760.184 378.459 761.114 381.68 758.528 389.065 755.623 405.419 753.844 407.532 753.615 409.796 753.404 412.219 753.215 414.221 753.058 416.32 752.915 418.547 752.791 418.922 752.776 419.253 752.945 419.484 753.207 419.651 753.396 419.772 753.628 419.788 753.9 419.797 754.067 419.768 754.227 419.713 754.375 419.554 754.799 419.16 755.113 418.678 755.14 385.218 757.011 379.646 762.654 378.736 764.239 378.373 765.206 378.066 766.562 378.599 767.722 379.176 768.976 380.702 769.81 383.081 770.23 386.957 767.008 397.222 763.25 423.311 761.792 423.953 761.758 424.515 762.253 424.552 762.901 424.588 763.551 424.091 764.106 423.442 764.141 388.289 766.106 383.913 772.24 383.391 773.451 383.324 773.688 383.292 773.926 383.376 774.143 383.565 774.623 384.753 776.218 392.143 776.544L415.132 775.357C415.274 775.271 415.432 775.209 415.608 775.191L436.079 772.985C436.711 772.914 437.306 773.382 437.375 774.029 437.445 774.676 436.978 775.256 436.331 775.325L415.9 777.526C415.853 777.553 415.815 777.592 415.764 777.613 413.54 778.535 410.494 780.494 410.56 781.778 410.577 782.119 410.969 783.331 415.291 784.628 427.062 788.157 475.89 781.245 480.901 780.52L563.463 690.68 564.474 689.58 565.486 688.479 587.755 664.247 596.895 538.543ZM496.557 308.534C494.764 307.975 493.118 307.527 491.585 307.161 487.164 306.102 483.794 305.761 481.331 305.757 481.215 305.757 481.102 305.757 480.99 305.759 480.531 305.764 480.106 305.778 479.713 305.802 479.147 305.838 478.632 305.886 478.195 305.947 478.162 305.952 478.121 305.955 478.089 305.96 477.258 306.083 476.684 306.232 476.303 306.352 476.428 307.674 476.575 308.98 476.753 310.263 476.99 310.363 479.578 311.4 484.046 311.81 484.614 311.862 485.204 311.905 485.831 311.933 486.378 311.957 486.944 311.973 487.535 311.974 491.198 311.982 495.7 311.483 500.864 310.001 499.356 309.452 497.91 308.956 496.557 308.534ZM487.583 314.379C487.229 314.379 486.918 314.356 486.579 314.348 482.09 314.238 478.875 313.459 477.168 312.909 477.564 315.205 478.058 317.421 478.652 319.546 480.038 320.018 484.968 321.341 491.166 318.945 491.551 318.796 491.941 318.629 492.335 318.451 492.705 318.283 493.078 318.101 493.454 317.905 495.736 316.721 498.139 315.005 500.566 312.555 496.583 313.636 492.997 314.155 489.873 314.317 489.314 314.346 488.785 314.354 488.255 314.362 488.034 314.365 487.798 314.379 487.583 314.379ZM480.903 271.269 479.372 258.967C479.837 256.328 480.329 253.742 480.836 251.223 480.924 250.787 481.012 250.35 481.101 249.918 481.19 249.482 481.281 249.051 481.371 248.62 481.409 248.44 481.447 248.26 481.484 248.081 484.008 236.138 486.795 226.055 488.547 220.123 488.787 219.312 489.009 218.571 489.207 217.92 489.58 218.804 490.006 219.586 490.454 220.323 495.027 227.844 503.08 228.057 506.364 227.778 506.11 243.341 510.436 255.461 519.232 263.813 523.795 268.147 529.034 270.982 534.128 272.834L528.13 272.617 510.222 271.971 509.046 271.929 507.87 271.886 481.807 270.946C481.463 270.929 481.148 271.059 480.903 271.269ZM488.235 267.475C488.235 266.018 487.054 264.837 485.598 264.837 484.141 264.837 482.961 266.018 482.961 267.475 482.961 268.931 484.141 270.112 485.598 270.112 487.054 270.112 488.235 268.931 488.235 267.475ZM482.917 251.403C482.963 251.588 483.039 251.767 483.178 251.918 483.617 252.394 484.36 252.425 484.838 251.987 484.857 251.97 484.914 251.921 484.992 251.858 485.263 251.636 485.892 251.18 486.818 250.77 488.609 249.979 491.511 249.409 495.128 251.183 495.812 251.518 496.523 251.948 497.254 252.467 497.774 252.834 498.303 253.251 498.844 253.724 498.972 253.835 499.095 253.923 499.224 254.041 499.45 254.247 499.734 254.349 500.017 254.349 500.086 254.349 500.152 254.319 500.22 254.307 500.466 254.264 500.705 254.165 500.887 253.966 500.924 253.925 500.938 253.874 500.969 253.829 501.213 253.475 501.253 253.031 501.07 252.656 501.007 252.527 500.924 252.406 500.812 252.303 500.448 251.97 500.093 251.702 499.735 251.411 496.099 248.459 492.81 247.604 490.139 247.694 490.114 247.695 490.089 247.694 490.065 247.695 488.78 247.747 487.644 248 486.682 248.341 484.766 249.021 483.56 249.984 483.306 250.202 483.277 250.227 483.241 250.258 483.238 250.261 482.914 250.563 482.816 251.002 482.917 251.403ZM476.705 278.128C476.848 276.68 477.003 275.232 477.174 273.788 477.241 273.222 477.313 272.657 477.384 272.091 477.54 270.853 477.704 269.618 477.877 268.389L479.086 278.098 480.422 288.829C480.472 289.236 480.713 289.559 481.032 289.763 481.24 289.896 481.474 289.989 481.733 289.989 481.788 289.989 481.843 289.986 481.899 289.979 482.624 289.889 483.139 289.227 483.049 288.502L481.175 273.452C481.338 273.533 481.518 273.585 481.711 273.592L507.806 274.534 508.982 274.576 510.158 274.619 532.404 275.422 536.565 275.572 549.229 276.029C551.326 276.194 553.107 276.23 554.425 276.216L558.274 276.355C558.29 276.356 558.307 276.356 558.323 276.356 559.032 276.356 559.619 275.794 559.645 275.079 559.657 274.739 559.531 274.431 559.328 274.189 567.522 266.868 574.377 267.297 578.792 269.058 586.155 271.998 590.866 280.152 591.008 286.021 591.227 295.09 582.599 303.449 579.831 305.894 579.671 306.003 579.509 306.11 579.352 306.221 571.269 311.947 566.047 320.874 566.047 330.934 566.047 338.429 568.941 345.304 573.757 350.693L571.635 352.13 566.832 355.222 561.478 358.67 550.553 365.704 536.113 341.652C535.896 341.29 535.508 341.081 535.104 341.081 534.982 341.081 534.858 341.1 534.737 341.14 529.987 342.699 525.604 343.642 521.6 344.192 518.128 344.669 514.95 344.848 512.118 344.815 511.712 344.81 511.33 344.793 510.937 344.78 510.541 344.768 510.127 344.765 509.746 344.745 501.376 344.309 496.535 342.218 496.43 342.172 487.91 338.695 482.566 331.477 479.454 322.166 480.553 322.4 482.026 322.615 483.803 322.615 486.357 322.615 489.504 322.16 492.919 320.701 493.296 320.54 493.676 320.365 494.06 320.178 494.424 320.001 494.789 319.815 495.159 319.613 498.303 317.893 501.607 315.271 504.848 311.315 504.884 311.272 504.895 311.22 504.923 311.174 506.459 310.629 508.027 310.029 509.658 309.305 510.253 309.041 510.52 308.346 510.257 307.752 510.09 307.377 509.749 307.154 509.374 307.09 509.153 307.052 508.923 307.056 508.703 307.154 508.528 307.231 508.364 307.288 508.19 307.363 507.849 307.511 507.52 307.636 507.183 307.775 506.256 308.159 505.339 308.524 504.445 308.845 504.362 308.875 504.283 308.899 504.2 308.929 504.176 308.897 504.16 308.861 504.133 308.833 504.016 308.708 503.877 308.601 503.707 308.535 502.752 308.167 501.855 307.85 500.955 307.53 499.564 307.035 498.226 306.585 496.962 306.195 488.275 303.516 482.542 303.189 479.062 303.483 478.836 303.502 478.592 303.516 478.386 303.54 478.089 303.574 477.832 303.616 477.573 303.657 477.034 303.743 476.571 303.838 476.188 303.936 476.18 303.938 476.173 303.941 476.164 303.943 476.142 303.949 476.124 303.954 476.103 303.96 476.102 303.946 476.101 303.932 476.1 303.917 476.098 303.892 476.095 303.867 476.094 303.841 476.065 303.431 476.04 303.018 476.015 302.605 476.005 302.426 475.995 302.246 475.985 302.067 475.954 301.486 475.925 300.903 475.902 300.317 475.844 298.844 475.811 297.356 475.804 295.854 475.802 295.463 475.804 295.069 475.806 294.676 475.807 294.288 475.807 293.9 475.812 293.51 475.872 288.458 476.195 283.288 476.705 278.128ZM563.266 290.548C563.369 290.576 563.472 290.589 563.573 290.589 564.092 290.589 564.567 290.243 564.709 289.718 564.727 289.652 565.9 285.566 569.914 282.693 569.944 282.707 569.966 282.733 569.999 282.746 570.284 282.852 576.944 285.45 574.971 293.92 574.824 294.553 575.217 295.185 575.85 295.333 575.94 295.354 576.03 295.364 576.118 295.364 576.653 295.364 577.136 294.997 577.263 294.454 579.074 286.682 574.757 282.829 572.328 281.325 574.599 280.304 577.479 279.697 581.168 280.006 581.815 280.057 582.384 279.578 582.439 278.932 582.493 278.284 582.012 277.715 581.364 277.66 566.062 276.383 562.471 288.978 562.437 289.106 562.267 289.733 562.638 290.379 563.266 290.548Z" fill="#FFFFFF" transform="matrix(1 0 0 1.00121 171.035 145.38)"/><path d="M529.352 662.585 528.182 664.157 527.12 665.585C510.323 669.91 492.639 672.921 475.877 672.922 469.677 672.922 463.609 672.512 457.755 671.607 435.796 668.211 427.401 659.521 427.055 659.154 390.919 616.562 381.628 578.318 380.986 551.508 380.915 548.546 380.945 545.716 381.06 543.043 382.139 518.138 390.021 501.624 392.595 496.847 392.604 496.731 392.613 496.615 392.659 496.501L392.808 496.132C378.482 482.589 367.509 470.732 359.095 460.53 359.316 460.174 359.538 459.815 359.758 459.449 359.978 459.085 360.196 458.714 360.415 458.34 368.69 468.475 379.546 480.291 393.757 493.778L414.365 442.659C414.607 442.057 415.295 441.765 415.896 442.008 416.499 442.251 416.79 442.937 416.547 443.54L395.52 495.697C395.611 496.007 395.59 496.347 395.412 496.638 395.304 496.815 384.614 514.665 383.406 543.283 383.296 545.88 383.269 548.625 383.339 551.5 383.981 577.871 393.151 615.555 428.809 657.586 428.848 657.623 437.125 666.103 458.418 669.327 480.56 672.681 505.933 668.858 529.352 662.585ZM369.581 481.635 350.236 472.014 349.14 471.469 348.043 470.923 343.802 468.814 314.525 454.254 313.42 453.704 312.315 453.154 307.25 450.635C306.718 450.371 306.072 450.544 305.744 451.04L262.225 516.828C258.544 403.713 239.122 372.246 227.01 363.72 227.016 363.707 227.025 363.695 227.03 363.682L327.682 239.388 330.718 375.978C331.104 375.96 331.498 375.976 331.894 375.996 332.281 376.015 332.676 376.061 333.074 376.117L329.973 236.559 342.502 221.086C342.584 220.984 342.637 220.865 342.681 220.744L375.143 217.394C374.764 217.037 374.388 216.68 374.015 216.328 373.636 215.969 373.26 215.613 372.887 215.261L341.205 218.531 339.347 217.041 338.149 216.081 336.953 215.122 304.213 188.869 303.265 188.109 302.318 187.349 294.811 181.33C294.342 180.954 293.663 180.992 293.24 181.42L156.921 318.834 155.877 319.438 147.608 320.265C147.139 320.707 146.675 321.15 146.181 321.59 145.968 321.781 145.782 321.975 145.563 322.165 145.528 322.192 145.122 322.493 144.444 322.947L150.926 322.298 56.5192 376.844C55.9567 377.169 55.7643 377.889 56.0895 378.452 56.3072 378.829 56.7026 379.04 57.1094 379.04 57.3092 379.04 57.5115 378.989 57.6972 378.882L156.615 321.73 157.027 321.688C157.299 321.661 157.553 321.54 157.745 321.346L158.575 320.51 158.646 320.438 294.165 183.828 300.376 188.809 301.326 189.571 302.273 190.33 333.939 215.721 335.127 216.673 336.328 217.636 337.872 218.874 339.179 219.922 339.929 220.524 339.483 221.074 329.892 232.919 328.747 234.333 327.601 235.748 224.357 363.243C224.311 363.3 224.295 363.371 224.261 363.434 205.238 386.414 187.911 398.021 187.732 398.14L76.2954 472.664C75.7547 473.025 75.61 473.756 75.9714 474.296 76.1984 474.636 76.5707 474.819 76.9504 474.819 77.1751 474.819 77.4026 474.754 77.6032 474.62L153.479 423.877 189.034 400.1C189.051 400.089 189.265 399.943 189.568 399.732 192.507 397.69 208.272 386.274 225.543 365.567 237.333 373.693 256.534 404.759 259.962 519.81L240.008 553.494C239.677 554.053 239.862 554.775 240.421 555.106 240.609 555.217 240.816 555.27 241.02 555.27 241.422 555.27 241.814 555.065 242.033 554.693L261.608 521.65C261.821 521.562 262.011 521.418 262.144 521.216L307.133 453.206 311.935 455.594 313.041 456.144 314.146 456.694 343.541 471.313 346.382 472.726 347.48 473.272 348.576 473.817 367.353 483.156 341.49 523.09 271.311 631.454C271.241 631.551 264.182 641.275 253.087 642.67 246.593 643.485 239.972 641.268 233.389 636.151 242.412 429.521 218.283 388.142 217.251 386.481 216.908 385.93 216.186 385.762 215.634 386.103 215.083 386.443 214.911 387.167 215.25 387.72 215.498 388.125 239.902 430.51 231.09 634.797 230.968 634.808 230.845 634.794 230.728 634.844 230.319 635.02 230.045 635.412 230.018 635.855L226.409 696.634C223.592 698.83 205.639 712.11 174.72 719.328 143.79 726.549 93.1912 729 27.6249 699.802 26.6728 692.724 18.3459 628.766 17.9995 556.974 17.5167 456.895 32.6876 387.154 61.8716 355.291 61.9951 355.156 62.0854 354.995 62.1353 354.82L62.2824 354.305C62.3519 354.062 62.3416 353.803 62.2525 353.567L56.44 338.112 85.4577 329.074C85.3171 329.025 85.1794 328.986 85.0384 328.936L69.2946 333.105C69.075 333.163 68.861 333.135 68.6587 333.074 68.2897 332.962 67.9771 332.691 67.8628 332.294L67.8086 332.106 54.5496 336.236C54.2405 336.332 53.9842 336.552 53.8423 336.843 53.6998 337.134 53.6843 337.47 53.798 337.774L59.8899 353.971C30.0411 386.845 15.1552 455.145 15.6459 556.985 16.0125 632.905 25.2881 700.103 25.3817 700.773 25.4374 701.174 25.6966 701.519 26.066 701.685 67.9404 720.428 103.818 726.377 132.49 726.376 149.373 726.376 163.76 724.313 175.398 721.586 209.5 713.596 228.122 698.284 228.306 698.13 228.555 697.922 228.707 697.621 228.726 697.297L232.232 638.271C239.231 643.626 246.336 645.893 253.381 645.005 265.487 643.482 272.916 633.256 273.256 632.778L342.521 525.828 370.045 483.329C370.227 483.048 370.28 482.702 370.192 482.379 370.103 482.055 369.881 481.785 369.581 481.635ZM531.027 414.927C530.952 415.076 530.873 415.222 530.799 415.371 530.698 415.49 530.573 415.591 530.424 415.664 529.992 415.876 529.568 416.067 529.139 416.273 512.186 424.41 497.102 427.921 484.426 428.914 484.265 429.028 484.085 429.117 483.875 429.138 483.836 429.142 483.797 429.143 483.758 429.143 483.565 429.143 483.389 429.083 483.226 428.998 480.887 429.154 478.622 429.236 476.456 429.236 457.673 429.236 445.545 423.903 442.276 422.272 441.902 422.27 441.542 422.091 441.319 421.773L441.291 421.734C441.049 421.565 440.88 421.327 440.815 421.056L402.641 366.813C402.524 366.645 402.452 366.451 402.433 366.248L393.003 268.597 389.358 230.848C389.791 231.258 390.224 231.668 390.659 232.08 391.091 232.49 391.526 232.901 391.96 233.313L395.079 265.608 404.745 365.712 440.985 417.208 440.519 402.07C440.501 401.487 440.913 400.978 441.488 400.875L449.519 399.44 450.679 399.232 451.839 399.025 509.004 388.806C509.258 389.164 509.523 389.513 509.793 389.861 509.872 389.962 509.958 390.059 510.038 390.16 510.238 390.41 510.44 390.658 510.647 390.903L510.177 390.987 502.514 392.357 504.147 401.792 504.349 402.957 504.551 404.121 507.665 422.115C513.715 420.312 520.109 417.901 526.811 414.762L523.698 400.315C524.55 400.665 525.423 400.975 526.31 401.263L528.998 413.735C529.128 413.671 529.255 413.616 529.386 413.552 529.755 413.37 530.162 413.418 530.492 413.612 530.684 413.725 530.856 413.874 530.961 414.089 531.095 414.361 531.104 414.657 531.027 414.927ZM459.847 425.38C459.753 425.227 459.683 425.06 459.667 424.869L459.001 416.401 458.908 415.208 458.814 414.014 457.74 400.361 452.124 401.365 450.964 401.572 449.804 401.78 442.902 403.013 443.432 420.224C445.495 421.246 451.164 423.745 459.847 425.38ZM482.452 426.708 480.848 410.511 480.73 409.325 480.613 408.137 479.458 396.479 460.068 399.945 461.126 413.391 461.22 414.585 461.314 415.778 462.014 424.684C462.046 425.092 461.852 425.451 461.553 425.686 467.353 426.653 474.364 427.202 482.452 426.708ZM505.391 422.775 502.269 404.737 502.067 403.572 501.865 402.408 500.198 392.771 481.782 396.063 482.916 407.516 483.034 408.704 483.151 409.89 484.799 426.523C491.082 425.995 497.964 424.836 505.391 422.775Z" fill="#1C1F2E" transform="matrix(1 0 0 1.00121 171.035 145.38)"/><path d="M380.986 551.508C368.046 551.312 350.818 546.7 342.521 525.828L370.045 483.329C370.227 483.048 370.28 482.702 370.192 482.379 370.103 482.055 369.881 481.785 369.581 481.635L350.236 472.014 349.14 471.469 348.043 470.923 349.262 469.599C351.85 467.003 354.707 463.179 357.497 458.563 357.717 458.198 357.938 457.838 358.158 457.464 358.372 457.097 358.585 456.717 358.798 456.341 369.368 437.732 378.144 408.245 365.98 390.803 362.26 385.469 358.625 381.755 355.223 379.748 353.28 378.601 351.411 378 349.651 378 349.597 378 349.544 378 349.49 378.002 346.207 378.068 344.09 380.13 343.218 381.184 345.779 383.675 349.953 388.066 353.062 392.961 353.389 393.476 353.705 393.996 354.006 394.521 354.329 395.085 354.133 395.804 353.57 396.127 353.385 396.233 353.184 396.283 352.986 396.283 352.844 396.283 352.714 396.225 352.582 396.176 352.333 396.083 352.106 395.939 351.964 395.691 348.344 389.368 342.242 383.456 340.125 381.5 337.602 379.879 335.264 378.879 333.127 378.507 332.726 378.437 332.333 378.391 331.946 378.365 331.548 378.339 331.154 378.327 330.771 378.348 329.909 378.394 329.081 378.54 328.299 378.823 324.482 380.208 322.479 384.147 321.689 386.126 323.715 386.757 326.906 388.065 331.046 390.733 331.435 390.983 331.834 391.251 332.239 391.526 332.632 391.793 333.026 392.061 333.434 392.352 334.599 393.183 335.819 394.106 337.101 395.151 337.605 395.561 337.68 396.303 337.27 396.807 337.038 397.092 336.699 397.24 336.357 397.24 336.096 397.24 335.833 397.153 335.614 396.976 334.888 396.384 334.187 395.84 333.5 395.322 333.094 395.016 332.696 394.724 332.303 394.442 331.896 394.149 331.502 393.876 331.11 393.608 325.822 389.993 321.996 388.625 320.169 388.138 320.055 388.141 319.94 388.145 319.828 388.114 316.271 387.132 313.494 387.441 311.574 389.034 308.396 391.671 308.127 397.167 308.155 399.376 311.415 399.667 316.386 400.731 323.615 403.702 324.217 403.949 324.503 404.637 324.256 405.238 324.07 405.693 323.631 405.968 323.168 405.968 323.019 405.968 322.867 405.939 322.721 405.879 308.909 400.204 303.867 401.885 303.819 401.903 303.697 401.947 303.574 401.955 303.451 401.958 302.533 402.349 301.685 402.987 300.901 403.893 296.174 409.352 295.31 422.509 297.721 430.183 298.38 432.284 299.54 433.652 301.268 434.367 304.858 435.85 309.908 434.131 312.376 433.095 304.244 425.544 303.987 418.798 303.98 418.49 303.968 417.841 304.484 417.303 305.133 417.29 305.763 417.294 306.317 417.789 306.333 418.437 306.337 418.525 306.678 425.683 316.138 433.245 316.645 433.651 316.728 434.391 316.322 434.899 316.09 435.19 315.748 435.341 315.402 435.341 315.145 435.341 314.885 435.257 314.668 435.083 314.663 435.079 314.658 435.075 314.652 435.07 306.96 445.038 314.043 451.448 314.359 451.722 314.664 451.988 314.815 452.395 314.753 452.793L314.525 454.254 313.42 453.704 312.315 453.154 312.335 453.022C310.702 451.279 305.83 444.957 311.063 436.108 308.041 437.109 303.803 437.96 300.373 436.544 297.992 435.56 296.345 433.658 295.475 430.889 292.829 422.463 293.826 408.469 299.122 402.353 300.967 400.222 303.306 399.111 305.794 399.15 305.784 396.433 306.226 390.42 310.065 387.228 312.352 385.326 315.409 384.766 319.157 385.539 319.168 385.54 319.177 385.535 319.188 385.536 319.209 385.538 319.281 385.547 319.377 385.561 320.213 383.334 322.564 378.409 327.48 376.616 328.514 376.239 329.595 376.03 330.718 375.978 331.104 375.96 331.498 375.976 331.894 375.996 332.281 376.015 332.676 376.061 333.074 376.117 335.294 376.432 337.662 377.314 340.167 378.766 340.432 378.772 340.698 378.852 340.915 379.04 340.963 379.082 341.177 379.271 341.5 379.565 341.502 379.566 341.503 379.566 341.505 379.567 342.703 378.169 345.355 375.746 349.405 375.649 351.442 375.617 353.534 376.177 355.67 377.305 359.61 379.385 363.705 383.426 367.91 389.457 375.188 399.893 376.206 415.806 370.775 434.265 368.088 443.399 364.314 451.669 360.415 458.34 360.196 458.714 359.978 459.085 359.758 459.449 359.537 459.815 359.316 460.174 359.095 460.53 367.509 470.732 378.482 482.589 392.807 496.132L392.659 496.501C392.613 496.615 392.604 496.731 392.594 496.847 390.021 501.624 382.139 518.138 381.06 543.043 380.945 545.716 380.915 548.546 380.986 551.508ZM150.349 244.539C152.567 247.382 182.535 287.351 147.608 320.265 147.139 320.707 146.675 321.15 146.182 321.59 145.968 321.781 145.782 321.975 145.563 322.165 145.528 322.192 145.122 322.493 144.444 322.947 140.72 325.437 127.679 333.148 108.995 333.149 101.891 333.149 93.9775 332.023 85.4577 329.074 85.317 329.025 85.1794 328.986 85.0384 328.936L69.2946 333.105C69.075 333.163 68.861 333.136 68.6587 333.074 68.2896 332.962 67.9771 332.691 67.8628 332.294L67.8086 332.106 65.1114 322.77C61.6668 327.333 55.5554 332.804 46.2594 332.056 30.6301 330.799 31.4468 318.009 34.7342 314.371 34.7342 314.371 5.53999 315.454 14.8406 287.669 14.8406 287.669-7.04492 268.509 2.33851 243.533 11.7219 218.556 37.651 212.211 38.4853 213.141 38.4853 213.141 33.7145 185.885 69.6872 177.328 69.6872 177.328 89.5493 171.235 110.007 181.97 110.007 181.97 128.56 177.19 140.016 192.865 147.228 202.733 142.329 213.165 136.757 219.938 141.245 225.499 146.124 233.411 150.349 244.539ZM144.069 320.348C159.824 306.625 165.38 289.926 160.531 270.759 156.894 256.384 148.486 245.974 148.402 245.87 148.321 245.772 148.258 245.661 148.212 245.542 144.165 234.835 139.466 227.183 135.147 221.782 129.534 214.763 124.564 211.551 122.511 210.421 116.922 221.498 104.917 219.217 100.499 217.926 100.744 231.305 97.0893 241.653 89.6253 248.697 80.4239 257.381 68.0002 258.696 61.8911 258.765 67.0652 263.234 69.8606 268.306 70.2117 273.877 70.942 285.463 60.8666 294.875 60.4374 295.269 60.1455 295.538 59.7376 295.643 59.3526 295.545 58.9682 295.447 58.6579 295.163 58.5281 294.788 56.3326 288.439 51.6669 284.3 45.7273 283.432 40.9112 282.734 36.1904 284.508 33.7035 287.968 30.8972 291.872 31.0759 297.422 34.2074 303.596 45.2189 325.304 63.3965 316.437 64.1659 316.048 64.4779 315.89 64.845 315.879 65.1674 316.019 65.4886 316.159 65.7311 316.434 65.8288 316.771L66.8349 320.254 69.8049 330.536 84.7879 326.568C84.8868 326.542 84.9879 326.529 85.089 326.529 85.2234 326.529 85.3573 326.552 85.4849 326.598 85.4866 326.598 85.4881 326.599 85.4899 326.599 86.3132 326.894 87.1255 327.155 87.9372 327.415 88.94 327.736 89.9328 328.029 90.9169 328.299 113.295 334.442 130.716 327.839 138.917 323.499 139.899 322.979 140.761 322.49 141.471 322.061 142.492 321.445 143.212 320.959 143.634 320.662 143.895 320.478 144.051 320.361 144.069 320.348ZM598.87 527.609 600.057 527.522 599.265 538.413 590.073 664.826C590.053 665.091 589.945 665.342 589.765 665.537L565.971 691.428 564.96 692.529 563.949 693.63 482.35 782.421C482.168 782.62 481.923 782.75 481.656 782.789 479.893 783.05 446.341 787.966 426.376 787.966 421.355 787.967 417.197 787.656 414.616 786.882 410.409 785.621 408.314 783.99 408.209 781.895 408.132 780.365 409.201 779.018 410.516 777.951L392.152 778.896C385.634 778.612 382.081 777.331 381.177 774.981 381.017 774.564 380.97 774.15 380.979 773.747L380.975 773.747C380.973 773.726 380.978 773.675 380.977 773.646 380.976 773.615 380.978 773.576 380.979 773.535 380.994 773.358 381.029 773.187 381.067 773.018 381.096 772.904 381.134 772.78 381.184 772.647 381.224 772.518 381.253 772.384 381.305 772.264 378.862 771.596 377.234 770.4 376.455 768.692 375.789 767.233 375.899 765.695 376.217 764.431 376.239 764.201 376.335 763.862 376.509 763.466 376.586 763.255 376.665 763.056 376.743 762.877 374.408 761.573 373.203 760.043 373.157 758.317 373.076 755.248 376.751 753.089 377.44 752.712 379.486 751.295 384.626 749.921 391.497 748.629 391.239 748.18 391.074 747.712 391.074 747.214 391.074 742.452 403.492 739.96 415.759 739.96 423.489 739.96 431.273 740.952 435.977 742.876 453.373 741.158 468.65 740.026 471.938 739.788L527.12 665.585 528.182 664.157 529.351 662.585 535.496 654.322 537.477 541.822 537.617 533.842 537.649 532.053 538.505 531.991 538.828 531.967 539.684 531.905 540.006 531.882 539.975 533.671 539.859 540.21 539.833 541.692 539.744 546.749 537.843 654.742C537.838 654.988 537.757 655.226 537.61 655.423L533.037 661.573 531.852 663.165 530.761 664.633 473.505 741.625C473.3 741.9 472.986 742.072 472.644 742.097 463.48 742.748 451.577 743.715 439.32 744.894 438.784 744.946 438.244 744.999 437.706 745.052 437.01 745.12 436.314 745.187 435.616 745.256 422.088 746.599 408.426 748.186 397.8 749.882 396.998 750.01 396.224 750.139 395.458 750.268 394.825 750.375 394.216 750.483 393.61 750.59 386.116 751.918 380.663 753.299 378.745 754.671 378.703 754.701 378.658 754.728 378.614 754.753 377.795 755.19 375.468 756.775 375.51 758.258 375.536 759.177 376.586 760.184 378.459 761.114 381.68 758.528 389.065 755.623 405.419 753.844 407.532 753.615 409.796 753.404 412.219 753.215 414.221 753.058 416.32 752.915 418.547 752.791 418.922 752.776 419.253 752.945 419.484 753.207 419.651 753.396 419.772 753.628 419.788 753.9 419.797 754.068 419.768 754.227 419.713 754.375 419.554 754.799 419.159 755.113 418.678 755.14 385.218 757.011 379.646 762.654 378.736 764.239 378.373 765.206 378.066 766.562 378.599 767.722 379.176 768.976 380.702 769.81 383.081 770.23 386.957 767.008 397.222 763.25 423.311 761.792 423.953 761.758 424.515 762.253 424.551 762.901 424.588 763.551 424.091 764.106 423.442 764.141 388.289 766.106 383.913 772.24 383.391 773.451 383.324 773.688 383.292 773.926 383.376 774.143 383.565 774.623 384.753 776.218 392.143 776.544L415.132 775.357C415.274 775.271 415.432 775.209 415.608 775.191L436.079 772.985C436.711 772.914 437.306 773.382 437.375 774.029 437.445 774.676 436.977 775.256 436.331 775.325L415.9 777.526C415.853 777.553 415.815 777.592 415.764 777.613 413.54 778.535 410.494 780.494 410.56 781.778 410.577 782.119 410.969 783.331 415.291 784.628 427.062 788.157 475.89 781.245 480.901 780.521L563.463 690.68 564.474 689.58 565.486 688.479 587.755 664.247 596.895 538.543 597.684 527.695 598.87 527.609ZM394.101 748.159C404.11 746.41 417.091 744.828 429.627 743.519 426.06 742.814 421.422 742.314 415.759 742.314 401.31 742.314 393.428 745.551 393.428 747.214 393.428 747.492 393.667 747.815 394.101 748.159ZM675.434 334.708C668.752 343.886 661.688 348.946 655.086 351.564 654.683 351.724 654.282 351.875 653.883 352.017 653.472 352.163 653.061 352.31 652.655 352.437 638.607 356.853 627.239 350.664 627.239 350.664 625.868 352.303 624.155 353.78 622.195 355.062 616.262 359.54 608.65 362.233 600.348 362.233 591 362.233 582.536 358.811 576.349 353.278 576.189 353.135 576.031 352.991 575.873 352.845 575.811 352.787 575.756 352.723 575.694 352.665 575.604 352.579 575.521 352.487 575.432 352.401 575.292 352.266 575.158 352.126 575.021 351.989 574.876 351.844 574.729 351.7 574.586 351.552 574.529 351.493 574.468 351.437 574.412 351.377 574.333 351.294 574.247 351.217 574.169 351.134 574.046 351.001 573.916 350.874 573.795 350.739L571.635 352.13 573.757 350.693C568.941 345.304 566.047 338.429 566.047 330.934 566.047 320.874 571.269 311.947 579.352 306.221 579.509 306.11 579.671 306.003 579.831 305.894 582.599 303.449 591.227 295.09 591.008 286.021 590.866 280.152 586.155 271.998 578.792 269.058 574.377 267.297 567.522 266.868 559.328 274.189 559.096 273.911 558.76 273.723 558.37 273.708L558.137 273.7 556.476 273.64 546.048 273.264 538.649 272.997 535.762 272.893 534.128 272.834C529.034 270.982 523.795 268.147 519.232 263.813 510.436 255.461 506.11 243.341 506.364 227.778 503.08 228.057 495.027 227.844 490.454 220.323 490.006 219.586 489.58 218.804 489.207 217.92 489.009 218.57 488.787 219.312 488.547 220.123 486.795 226.055 484.008 236.138 481.484 248.081 481.447 248.26 481.409 248.44 481.371 248.62 481.281 249.051 481.19 249.482 481.101 249.918 481.012 250.35 480.924 250.787 480.836 251.223 480.329 253.742 479.837 256.328 479.372 258.967L478.864 254.885 478.4 251.157C478.512 250.603 478.623 250.052 478.736 249.505 478.54 249.345 478.342 249.182 478.133 249.012L477.922 247.318 477.891 247.071 477.862 246.837C477.772 246.111 477.111 245.596 476.385 245.687 476.268 245.702 476.167 245.753 476.062 245.796 475.904 245.86 475.767 245.948 475.648 246.063 475.472 246.231 475.334 246.432 475.272 246.671 469.582 242.014 461.21 235.157 452.122 227.696 430.365 209.836 404.655 188.638 402.63 186.547 401.751 185.639 400.985 184.986 400.244 184.353 398.098 182.523 396.404 181.077 394.333 175.573 392.687 171.201 387.369 149.475 382.677 130.307 379.763 118.406 377.247 108.128 376.461 105.538 376.122 104.422 375.785 103.196 375.437 101.928 373.943 96.4874 371.897 89.0372 368.651 88.9115 368.091 88.8979 367.663 89.0687 367.289 89.4098 367.251 89.4446 367.204 89.4551 367.167 89.4941 365.666 91.084 365.703 95.3572 365.834 96.7287 365.843 96.8216 365.821 96.9081 365.809 96.9969L366.307 98.9819 373.627 128.163C373.786 128.793 373.403 129.432 372.772 129.59 372.676 129.614 372.58 129.626 372.485 129.626 371.958 129.626 371.479 129.269 371.345 128.735L365.602 105.844 364.766 102.509 363.927 99.1647 362.768 94.5442C362.76 94.515 362.769 94.487 362.764 94.4578 361.754 91.3632 360.123 88.0154 357.71 87.5885 357.677 87.5913 357.647 87.6048 357.613 87.6048 357.52 87.6048 357.426 87.594 357.331 87.5709 357.316 87.5672 357.306 87.5561 357.291 87.5518 357.167 87.5477 357.047 87.5331 356.919 87.5445 354.191 87.7963 353.888 91.5998 353.867 92.9548 354.899 96.6859 358.909 111.32 361.506 122.737 361.795 124.008 362.064 125.233 362.312 126.403 362.546 127.512 362.762 128.573 362.949 129.559 363.07 130.197 362.651 130.813 362.013 130.934 361.956 130.945 361.9 130.947 361.845 130.95 361.827 130.95 361.809 130.955 361.792 130.955 361.328 130.955 360.922 130.672 360.734 130.252 360.697 130.17 360.655 130.09 360.637 129.997 358.582 119.175 353.313 99.8028 351.778 94.2289 351.686 94.1149 351.613 93.9842 351.569 93.8368 350.323 89.7073 348.227 89.6257 346.36 89.8705 343.872 90.1998 342.988 92.1539 342.706 93.0607 345.279 96.9183 348.663 109.947 352.803 131.994 352.923 132.633 352.502 133.247 351.863 133.367 351.79 133.381 351.717 133.388 351.645 133.388 351.09 133.388 350.596 132.993 350.489 132.428 344.882 102.565 341.827 95.8305 340.894 94.3645 340.864 94.349 340.828 94.3522 340.799 94.3339 339.203 93.3381 337.848 93.0423 336.769 93.4587 335.064 94.1162 334.38 96.3811 334.373 96.4041 332.287 103.065 337.832 128.935 341.263 142.559L348.268 159.367C348.519 159.967 348.235 160.656 347.635 160.906 347.487 160.968 347.334 160.997 347.183 160.997 346.722 160.997 346.284 160.724 346.096 160.273L339.614 144.719C339.483 144.607 339.368 144.476 339.295 144.308L339.139 143.952C336.5 137.904 334.268 134.764 332.506 134.621 331.752 134.556 330.966 135.165 330.154 136.422 326.848 141.535 337.83 163.729 343.109 174.394 344.884 177.981 346.285 180.814 346.841 182.275 348.988 187.933 353.541 193.603 354.033 194.207 354.06 194.232 354.11 194.279 354.154 194.321 354.349 194.506 354.713 194.849 355.231 195.338 355.539 195.629 355.896 195.965 356.309 196.356 359.814 199.666 366.998 206.451 375.976 214.943 376.35 215.296 376.723 215.649 377.104 216.009 377.476 216.361 377.853 216.718 378.231 217.076 381.637 220.298 385.259 223.726 389.014 227.281 389.445 227.689 389.88 228.101 390.315 228.513 390.747 228.922 391.18 229.332 391.616 229.745 398.35 236.123 405.413 242.819 412.292 249.35 415.828 252.708 419.314 256.02 422.68 259.223 422.971 259.5 423.262 259.777 423.552 260.052 423.842 260.329 424.132 260.605 424.42 260.879 439.554 275.285 451.946 287.163 454.927 290.253 455.198 290.533 455.511 290.804 455.804 291.08 456.472 291.706 457.187 292.319 457.958 292.918 462.416 296.38 468.368 299.359 473.541 301.574 473.536 301.471 473.53 301.371 473.525 301.267 473.498 300.676 473.452 300.112 473.433 299.509 473.416 298.957 473.418 298.379 473.408 297.818 473.397 297.179 473.402 296.519 473.399 295.869 472.694 295.842 471.985 295.787 471.281 295.687 470.547 295.582 469.831 295.42 469.143 295.211 468.842 295.119 468.55 295.014 468.263 294.898 466.694 294.265 465.372 293.282 464.642 291.742 464.597 291.648 464.583 291.541 464.545 291.444 464.406 291.089 464.311 290.714 464.262 290.319 464.199 289.812 464.217 289.268 464.303 288.694 464.67 286.237 466.371 283.174 469.504 279.401 471.428 277.084 473.436 275.05 474.768 273.762 474.846 273.102 474.899 272.475 474.983 271.807 475.497 267.72 476.116 263.67 476.798 259.718L477.309 263.819 477.877 268.389C477.704 269.618 477.54 270.853 477.384 272.091 477.313 272.657 477.241 273.222 477.174 273.788 477.003 275.232 476.848 276.68 476.705 278.128 476.195 283.288 475.872 288.458 475.812 293.51 475.807 293.9 475.807 294.288 475.806 294.676 475.804 295.069 475.802 295.463 475.804 295.854 475.811 297.356 475.844 298.844 475.902 300.317 475.925 300.903 475.954 301.486 475.985 302.067 475.995 302.246 476.005 302.426 476.015 302.605 476.04 303.018 476.065 303.431 476.094 303.841 476.095 303.867 476.098 303.892 476.1 303.917 476.101 303.932 476.102 303.946 476.103 303.96 476.124 303.954 476.142 303.949 476.164 303.943 476.173 303.941 476.18 303.938 476.188 303.936 476.571 303.838 477.034 303.743 477.573 303.657 477.832 303.616 478.089 303.574 478.386 303.54 478.592 303.516 478.836 303.502 479.062 303.483 482.542 303.189 488.275 303.516 496.962 306.195 498.226 306.585 499.564 307.035 500.955 307.53 501.855 307.85 502.752 308.167 503.707 308.535 503.877 308.601 504.016 308.708 504.133 308.833 504.16 308.861 504.176 308.897 504.2 308.929 504.283 308.899 504.362 308.875 504.445 308.845 505.339 308.524 506.256 308.159 507.183 307.775 507.52 307.636 507.849 307.511 508.19 307.363 508.364 307.288 508.528 307.231 508.703 307.153 508.923 307.056 509.153 307.052 509.374 307.09 509.749 307.154 510.09 307.377 510.257 307.752 510.52 308.346 510.253 309.041 509.658 309.305 508.027 310.029 506.459 310.629 504.923 311.174 504.895 311.22 504.884 311.272 504.848 311.315 501.608 315.271 498.303 317.893 495.159 319.613 494.79 319.815 494.424 320.001 494.06 320.178 493.676 320.365 493.296 320.54 492.919 320.701 489.504 322.16 486.357 322.615 483.803 322.615 482.026 322.615 480.553 322.4 479.454 322.166 482.566 331.477 487.91 338.695 496.43 342.172 496.535 342.218 501.376 344.309 509.746 344.745 510.127 344.765 510.541 344.768 510.937 344.78 511.33 344.793 511.712 344.81 512.118 344.815 514.95 344.848 518.128 344.669 521.6 344.192 525.604 343.642 529.987 342.699 534.737 341.14 534.858 341.1 534.982 341.081 535.104 341.081 535.509 341.081 535.896 341.29 536.113 341.652L550.553 365.704 549.563 366.342 548.573 366.979 542.305 371.015 540.204 372.326C539.909 372.509 539.711 372.814 539.662 373.158 539.613 373.501 539.718 373.849 539.949 374.108L547.008 382.013 547.928 383.044 548.848 384.074 551.681 387.247C546.097 391.611 541.153 396.912 536.837 403.048 533.151 402.957 529.618 402.334 526.31 401.263 525.423 400.975 524.55 400.665 523.698 400.315 519.636 398.643 516.001 396.276 512.965 393.371 512.474 392.901 511.988 392.427 511.529 391.93 511.222 391.597 510.939 391.247 510.647 390.903 510.44 390.658 510.238 390.41 510.038 390.159 509.958 390.059 509.872 389.962 509.793 389.861 509.523 389.513 509.258 389.164 509.004 388.806 505.515 383.906 503.469 378.071 503.469 371.792 503.469 370.183 503.643 368.615 503.9 367.072 490.515 388.232 467.072 393.524 466.752 393.592 466.713 393.6 466.673 393.607 466.634 393.611 463.638 393.934 460.745 394.096 457.962 394.096 455.62 394.096 453.382 393.939 451.192 393.711L451.839 399.025 450.679 399.232 449.519 399.44 441.488 400.875C440.913 400.978 440.501 401.487 440.519 402.07L440.985 417.208 404.745 365.712 395.079 265.608C399.422 259.656 404.434 254.518 410.239 250.645 404.164 244.878 397.955 238.991 391.96 233.313 391.526 232.901 391.091 232.49 390.659 232.08 390.224 231.668 389.791 231.258 389.358 230.848 384.354 226.109 379.546 221.559 375.143 217.394 374.765 217.036 374.388 216.68 374.015 216.328 373.636 215.969 373.26 215.613 372.887 215.261 365.578 208.348 359.592 202.693 356.006 199.307L355.615 203.117C355.55 203.608 353.96 213.834 339.347 217.041L338.15 216.081 336.953 215.122C351.673 212.757 353.221 203.239 353.279 202.834L353.851 197.272C352.953 196.424 352.428 195.928 352.363 195.867 352.328 195.835 352.296 195.8 352.266 195.764 352.054 195.509 347.043 189.439 344.64 183.11 344.126 181.756 342.746 178.968 340.999 175.438 332.471 158.205 324.456 140.899 328.177 135.144 329.497 133.104 331.017 132.148 332.697 132.274 334.182 132.395 335.523 133.406 336.752 134.885 336.764 134.88 336.77 134.87 336.782 134.865 336.855 134.835 336.931 134.836 337.006 134.821 335.226 126.999 332.9 115.776 331.986 107.024 331.808 108.906 331.696 110.56 331.641 111.812 331.619 112.311 331.284 112.742 330.806 112.886 330.328 113.033 329.81 112.857 329.515 112.454 328.459 111.01 327.682 110.596 327.298 110.694 326.185 110.977 325.013 114.36 324.615 117.341 321.551 156.646 304.726 188.163 304.556 188.477 304.475 188.626 304.363 188.756 304.227 188.858 304.223 188.862 304.218 188.866 304.213 188.869L303.265 188.109 302.318 187.349C302.415 187.276 302.505 187.208 302.603 187.134 304.106 184.257 319.38 154.214 322.275 117.095 322.453 115.738 323.472 109.241 326.716 108.414 327.618 108.185 328.532 108.392 329.451 109.034 329.944 102.253 331.732 85.6868 337.581 81.8049 338.663 81.0856 339.86 80.8063 341.097 80.977 341.472 79.9973 342.209 78.6723 343.591 77.9489 344.89 77.2692 346.426 77.2623 348.161 77.923 349.17 77.0617 351.299 75.5695 353.791 75.7867 355.553 75.9372 357.117 76.8818 358.45 78.5975 359.654 78.2057 361.783 77.8132 363.716 79.0026 365.751 80.254 366.915 82.8786 367.216 86.7816 367.696 86.6264 368.204 86.538 368.742 86.5603 373.71 86.7516 375.833 94.4832 377.706 101.304 378.049 102.552 378.38 103.757 378.713 104.855 379.517 107.506 382.041 117.813 384.962 129.748 389.407 147.906 394.939 170.504 396.536 174.745 398.393 179.68 399.81 180.889 401.772 182.562 402.518 183.2 403.364 183.921 404.321 184.909 406.285 186.938 432.591 208.618 454.473 226.579 457.611 225.147 460.979 223.841 464.539 222.769 464.815 218.286 465.866 213.17 467.962 207.343 480.082 173.633 511.14 176.095 511.14 176.095 550.153 131.969 593.521 176.095 593.521 176.095 650.714 172.496 647.305 243.704 647.305 243.704 674.955 256.013 664.579 291.523 664.579 291.523 694.757 308.443 675.434 334.708 675.434 334.708ZM346.051 87.5376C346.855 87.4316 348.573 87.2113 350.271 88.1311 350.132 81.2517 347.563 80.2975 347.535 80.2881 347.389 80.2402 347.259 80.1643 347.146 80.0708 346.15 79.7241 345.318 79.6997 344.683 80.0335 343.8 80.496 343.367 81.5548 343.184 82.1507 343.664 83.2008 344.069 85.0405 343.856 88.2233 344.491 87.898 345.211 87.6487 346.051 87.5376ZM334.516 92.1087C334.927 91.7757 335.38 91.4719 335.922 91.2627 337.369 90.7048 338.98 90.8254 340.726 91.6224 340.858 91.3195 341.03 91.0077 341.221 90.6965 341.857 86.3882 341.474 84.313 341.144 83.4002 340.328 83.1847 339.597 83.2901 338.882 83.7655 337.022 85 335.595 88.2141 334.516 92.1087ZM356.659 85.2095C357.281 81.8673 356.481 80.3355 356.472 80.3196 356.371 80.1389 356.339 79.9431 356.337 79.7477 355.492 78.7705 354.576 78.219 353.6 78.1322 352.225 78.013 350.937 78.7565 350.126 79.3661 351.286 80.6655 352.517 83.1952 352.622 88.0617 353.403 86.5833 354.673 85.4093 356.659 85.2095ZM358.993 85.5042C360.637 86.0914 362.39 87.6012 363.912 90.9031 364.142 90.043 364.474 89.2161 364.947 88.5188 364.904 84.6229 364.069 81.9926 362.495 81.0143 361.294 80.269 359.842 80.608 359.085 80.8714 359.289 81.9168 359.362 83.4467 358.993 85.5042ZM422.557 262.355C420.473 264.131 418.233 266.487 416.152 269.595 405.28 285.831 407.027 309.548 410.406 326.586 410.429 326.703 410.434 326.823 410.422 326.941 410.385 327.283 406.96 361.267 425.461 379.764 431.483 385.786 439.196 389.542 448.493 391.019 448.89 391.082 449.296 391.131 449.699 391.186 450.101 391.241 450.496 391.306 450.905 391.353 455.656 391.892 460.796 391.869 466.315 391.278 467.628 390.976 491.533 385.138 503.685 362.768 503.992 362.202 504.291 361.624 504.583 361.036 504.86 360.477 505.14 359.92 505.402 359.342 507.062 355.684 508.395 351.617 509.31 347.128 500.805 346.647 495.858 344.494 495.502 344.334 482.489 339.025 475.2 325.558 473.68 304.213 467.69 301.714 460.35 298.108 455.264 293.778 453.398 294.729 452.45 296.047 452.366 296.17 452.137 296.5 451.77 296.677 451.396 296.677 451.166 296.677 450.933 296.609 450.728 296.469 450.194 296.098 450.06 295.366 450.429 294.831 450.453 294.795 451.495 293.362 453.498 292.148 453.411 292.061 453.318 291.975 453.233 291.887 450.251 288.797 437.773 276.836 422.557 262.355ZM500.566 312.555C496.583 313.637 492.997 314.155 489.873 314.317 489.314 314.346 488.785 314.354 488.255 314.362 488.034 314.365 487.798 314.379 487.583 314.379 487.229 314.379 486.918 314.356 486.579 314.348 482.09 314.238 478.875 313.459 477.168 312.909 477.564 315.205 478.058 317.421 478.652 319.546 480.038 320.018 484.968 321.341 491.166 318.945 491.551 318.796 491.941 318.629 492.335 318.451 492.705 318.283 493.078 318.101 493.454 317.905 495.736 316.721 498.139 315.005 500.566 312.555ZM491.585 307.161C487.164 306.102 483.794 305.761 481.331 305.757 481.215 305.757 481.102 305.757 480.99 305.759 480.531 305.764 480.106 305.778 479.713 305.802 479.147 305.838 478.632 305.886 478.195 305.947 478.162 305.952 478.121 305.955 478.089 305.96 477.258 306.083 476.684 306.232 476.303 306.352 476.428 307.674 476.575 308.98 476.753 310.263 476.99 310.363 479.578 311.4 484.046 311.81 484.614 311.862 485.204 311.905 485.831 311.933 486.378 311.957 486.944 311.973 487.535 311.974 491.198 311.982 495.7 311.483 500.864 310.001 499.356 309.452 497.91 308.956 496.557 308.534 494.764 307.975 493.118 307.527 491.585 307.161ZM473.389 293.534C473.453 288.533 473.785 283.169 474.36 277.477 469.906 282.118 465.484 288.026 466.768 290.733 467.714 292.727 470.496 293.421 473.389 293.534ZM549.229 276.029C551.326 276.194 553.107 276.23 554.425 276.216L549.229 276.029ZM581.168 280.006C581.815 280.057 582.384 279.578 582.439 278.932 582.493 278.284 582.012 277.715 581.364 277.66 566.062 276.383 562.471 288.978 562.437 289.106 562.267 289.733 562.638 290.379 563.266 290.548 563.369 290.576 563.472 290.589 563.573 290.589 564.092 290.589 564.567 290.243 564.709 289.718 564.727 289.652 565.9 285.566 569.914 282.693 569.944 282.707 569.966 282.733 569.999 282.746 570.284 282.852 576.944 285.45 574.971 293.92 574.824 294.553 575.217 295.185 575.85 295.333 575.94 295.354 576.03 295.364 576.118 295.364 576.653 295.364 577.136 294.997 577.263 294.454 579.074 286.682 574.757 282.829 572.328 281.325 574.599 280.304 577.479 279.697 581.168 280.006ZM150.582 278.486C149.991 278.212 149.294 278.471 149.021 279.059 148.611 279.942 138.594 300.654 104.661 297.575 104.015 297.527 103.441 297.994 103.382 298.641 103.324 299.288 103.801 299.861 104.448 299.919 106.803 300.133 109.044 300.231 111.181 300.231 125.901 300.231 135.537 295.539 141.24 291.291 148.377 285.975 151.048 280.284 151.158 280.044 151.429 279.454 151.171 278.757 150.582 278.486ZM446.94 351.332C449.499 349.442 459.589 343.27 476.35 348.463 477.609 347.809 478.882 347.124 480.182 346.379 480.749 346.056 481.466 346.251 481.789 346.815 482.112 347.379 481.917 348.098 481.354 348.421 480.235 349.062 479.136 349.66 478.047 350.236 478.055 350.399 478.035 350.565 477.97 350.727 477.905 350.89 471.217 367.065 452.036 368.695 450.977 368.785 449.96 368.827 448.986 368.827 440.88 368.827 435.717 365.901 432.72 363.283 429.227 360.233 427.902 357.029 427.732 356.591 424.935 355.425 423.386 354.338 423.163 354.176 422.637 353.793 422.52 353.057 422.902 352.532 423.283 352.007 424.018 351.889 424.545 352.271 424.593 352.305 425.384 352.85 426.867 353.564 429.161 352.044 437.837 347.032 446.94 351.332ZM474.757 351.899C462.563 357.802 452.352 359.685 444.325 359.685 438.839 359.685 434.387 358.811 430.991 357.76 433.155 361.165 438.946 367.443 451.838 366.349 465.747 365.168 472.412 356.054 474.757 351.899ZM446.537 353.76C439.691 350.176 432.786 352.956 429.572 354.705 436.861 357.403 451.87 360.136 473.181 350.037 456.847 345.955 447.953 353.52 447.86 353.6 447.495 353.922 446.968 353.985 446.537 353.76ZM435.708 341.206C437.375 342.213 439.445 342.817 441.668 342.817 445.299 342.817 449.336 341.206 452.685 337.116 453.097 336.613 453.023 335.871 452.521 335.46 452.017 335.048 451.275 335.122 450.865 335.624 446.327 341.166 440.593 341.408 436.925 339.191 434.331 337.625 432.004 334.137 433.982 329.467 438.513 318.764 435.769 306.246 435.65 305.718 435.507 305.085 434.874 304.689 434.244 304.829 433.61 304.972 433.212 305.602 433.354 306.236 433.382 306.358 436.045 318.556 431.814 328.548 429.414 334.218 432.04 338.99 435.708 341.206ZM115.536 246.708C116.54 248.755 121.868 258.911 131.129 264.167 135.541 266.671 135.815 270.854 134.71 273.675 133.146 277.666 128.449 280.961 121.476 279.326 120.846 279.177 120.211 279.57 120.062 280.203 119.914 280.835 120.306 281.468 120.939 281.617 122.352 281.949 123.692 282.1 124.953 282.1 131.096 282.1 135.349 278.497 136.901 274.534 138.464 270.544 137.645 265.159 132.291 262.12 122.853 256.764 117.546 245.462 117.493 245.349 117.359 245.059 117.121 244.854 116.846 244.748 116.559 244.638 116.232 244.637 115.931 244.774 115.342 245.046 115.084 245.745 115.356 246.335 115.375 246.376 115.444 246.521 115.536 246.708ZM411.731 298.795C411.361 299.33 411.495 300.063 412.029 300.433 412.234 300.573 412.467 300.641 412.698 300.641 413.071 300.641 413.438 300.464 413.667 300.134 413.857 299.858 418.449 293.447 428.155 299.067 428.717 299.393 429.438 299.201 429.763 298.638 430.089 298.076 429.897 297.356 429.334 297.03 417.768 290.334 411.79 298.709 411.731 298.795ZM495.128 251.183C495.812 251.518 496.523 251.948 497.254 252.467 497.774 252.834 498.303 253.251 498.844 253.724 498.972 253.835 499.095 253.923 499.224 254.041 499.45 254.247 499.734 254.349 500.017 254.349 500.086 254.349 500.152 254.319 500.22 254.307 500.466 254.264 500.705 254.165 500.887 253.966 500.924 253.925 500.938 253.874 500.969 253.829 501.213 253.475 501.253 253.031 501.07 252.656 501.007 252.527 500.924 252.406 500.812 252.303 500.448 251.97 500.093 251.702 499.735 251.411 496.099 248.459 492.81 247.604 490.139 247.694 490.114 247.695 490.089 247.694 490.065 247.695 488.78 247.747 487.644 248 486.682 248.341 484.766 249.021 483.56 249.984 483.306 250.202 483.277 250.227 483.241 250.258 483.238 250.261 482.914 250.563 482.816 251.002 482.917 251.403 482.963 251.589 483.039 251.768 483.178 251.918 483.617 252.394 484.36 252.425 484.838 251.987 484.857 251.97 484.914 251.921 484.991 251.858 485.263 251.636 485.892 251.18 486.818 250.77 488.609 249.979 491.511 249.409 495.128 251.183ZM48.4428 296.259C48.3889 296.208 48.3481 296.146 48.2832 296.105 48.0428 295.951 47.7697 295.911 47.5074 295.943 42.0409 294.322 38.7502 296.466 38.5507 296.602 38.0186 296.967 37.8848 297.69 38.245 298.225 38.6041 298.761 39.3339 298.903 39.8728 298.549 40.0169 298.455 42.1577 297.134 45.8978 297.951 45.2381 299.487 44.4908 302.018 45.1775 304.664 45.8141 307.116 47.5189 309.103 50.2453 310.567 50.4223 310.663 50.6131 310.707 50.801 310.707 51.2205 310.707 51.6267 310.483 51.8387 310.087 52.1461 309.515 51.9318 308.801 51.3589 308.494 49.2398 307.355 47.9274 305.873 47.4592 304.088 46.9015 301.96 47.6256 299.838 48.1615 298.663 50.206 299.485 52.5819 300.906 55.2747 303.329 55.4999 303.531 55.7809 303.631 56.0614 303.631 56.3836 303.631 56.7043 303.499 56.9364 303.241 57.3715 302.758 57.3324 302.014 56.8491 301.579 53.699 298.745 50.8822 297.14 48.4428 296.259ZM104.962 249.798C105.598 249.879 106.197 249.426 106.28 248.782 106.364 248.137 105.909 247.547 105.264 247.464 100.767 246.883 97.0025 247.791 94.0721 250.165 88.933 254.329 88.3055 261.46 88.2813 261.762 88.2291 262.409 88.7112 262.975 89.3582 263.028 89.391 263.03 89.423 263.032 89.4553 263.032 90.0609 263.032 90.5757 262.566 90.6269 261.952 90.632 261.887 91.2112 255.501 95.566 251.983 97.9741 250.037 101.134 249.299 104.962 249.798ZM123.199 240.251C123.313 240.285 123.428 240.302 123.541 240.302 124.046 240.302 124.513 239.974 124.667 239.466 124.683 239.411 126.361 234.014 130.664 231.909 132.939 230.796 135.594 230.808 138.553 231.946 139.159 232.179 139.84 231.877 140.074 231.269 140.306 230.663 140.004 229.982 139.397 229.748 135.803 228.368 132.517 228.384 129.629 229.795 124.416 232.345 122.493 238.522 122.414 238.783 122.226 239.406 122.577 240.062 123.199 240.251ZM106.736 264.788C106.736 263.681 106.052 262.736 105.085 262.345 104.78 262.222 104.448 262.151 104.099 262.151 102.642 262.151 101.462 263.331 101.462 264.788 101.462 265.508 101.752 266.159 102.219 266.634 102.697 267.122 103.362 267.425 104.099 267.425 105.556 267.425 106.736 266.245 106.736 264.788ZM136.126 247.342C134.669 247.342 133.488 248.523 133.488 249.98 133.488 251.436 134.669 252.617 136.126 252.617 137.582 252.617 138.763 251.436 138.763 249.98 138.763 248.523 137.582 247.342 136.126 247.342ZM424.895 315.47C424.895 314.013 423.714 312.832 422.257 312.832 420.801 312.832 419.62 314.013 419.62 315.47 419.62 316.926 420.801 318.107 422.257 318.107 423.714 318.107 424.895 316.926 424.895 315.47ZM461.686 312.017C463.142 312.017 464.323 310.836 464.323 309.38 464.323 307.923 463.142 306.742 461.686 306.742 460.229 306.742 459.049 307.923 459.049 309.38 459.049 310.836 460.229 312.017 461.686 312.017ZM482.961 267.475C482.961 268.931 484.141 270.112 485.598 270.112 487.054 270.112 488.235 268.931 488.235 267.475 488.235 266.018 487.054 264.837 485.598 264.837 484.141 264.837 482.961 266.018 482.961 267.475Z" fill="#1C1F2E" transform="matrix(1 0 0 1.00121 171.035 145.38)"/><path d="M189.568 399.732C195.137 427.378 206.189 496.649 195.927 577.492L167.905 626.254 139.884 583.449C139.884 583.449 164.55 489.779 153.479 423.877L189.034 400.1C189.051 400.089 189.265 399.943 189.568 399.732ZM686.015 408.823C672.056 372.919 660.422 357.388 655.086 351.564 654.683 351.724 654.282 351.875 653.883 352.017 653.472 352.163 653.061 352.31 652.655 352.437 657.333 357.35 669.347 372.447 683.821 409.676 714.975 489.812 732.881 608.397 742.431 694.007 739.729 696.21 725.286 707.353 699.607 716.142 673.43 725.101 629.915 733.371 571.016 722.042L565.971 691.428 564.96 692.529 563.949 693.63 568.827 723.234C568.907 723.719 569.281 724.103 569.763 724.197 590.683 728.274 609.695 729.899 626.714 729.899 658.418 729.899 683.203 724.259 700.502 718.324 729.38 708.417 743.844 695.918 744.446 695.391 744.736 695.137 744.883 694.758 744.84 694.376 735.293 608.578 717.337 489.392 686.015 408.823ZM597.684 527.695 598.87 527.609 600.057 527.522 611.843 526.667 613.516 526.545C614.392 526.482 615.051 525.72 614.987 524.845 614.924 523.969 614.156 523.287 613.286 523.374L610.908 523.546 563.997 526.952 562.823 527.037 561.649 527.122 522.137 529.991C520.357 520.005 508.439 445.477 539.721 403.001 543.753 397.526 548.494 392.579 554.076 388.377 554.088 388.368 554.099 388.358 554.111 388.349 554.374 388.152 554.542 387.852 554.575 387.525 554.607 387.197 554.5 386.87 554.281 386.625L553.96 386.265 551.57 383.588 550.649 382.557 549.729 381.527 543.432 374.474 562.529 362.177 568.65 358.236 576.349 353.278C576.189 353.135 576.031 352.991 575.873 352.845 575.811 352.787 575.756 352.723 575.694 352.665 575.604 352.579 575.521 352.487 575.432 352.401 575.292 352.266 575.158 352.126 575.021 351.989 574.876 351.844 574.729 351.7 574.586 351.553 574.529 351.493 574.468 351.437 574.412 351.377 574.333 351.294 574.247 351.217 574.169 351.134 574.046 351.001 573.916 350.874 573.795 350.739L571.635 352.13 566.832 355.222 561.478 358.67 550.553 365.704 549.563 366.342 548.573 366.979 542.306 371.015 540.204 372.326C539.909 372.51 539.711 372.814 539.662 373.158 539.613 373.501 539.718 373.849 539.949 374.108L547.008 382.013 547.928 383.044 548.848 384.074 551.681 387.247C546.097 391.611 541.153 396.912 536.837 403.048 534.533 406.323 532.424 409.856 530.492 413.612 530.684 413.725 530.856 413.874 530.961 414.089 531.095 414.361 531.104 414.657 531.027 414.927 530.981 415.089 530.91 415.241 530.799 415.371 530.698 415.49 530.573 415.591 530.424 415.664 529.992 415.876 529.568 416.067 529.139 416.273 521.66 431.954 517.273 451.473 516.227 474.278 514.936 502.418 519.142 526.753 519.914 530.929 519.784 531.181 519.695 531.457 519.717 531.76 519.777 532.597 520.476 533.236 521.301 533.236 521.34 533.236 521.379 533.235 521.418 533.231L537.326 532.076 537.617 533.842 537.649 532.053 538.505 531.991 538.828 531.967 539.684 531.905 540.006 531.882 561.823 530.298 562.996 530.213 564.17 530.128 597.684 527.695ZM536.565 275.572 549.229 276.029 554.425 276.216 558.274 276.355C558.29 276.356 558.307 276.356 558.323 276.356 559.032 276.356 559.619 275.794 559.645 275.079 559.657 274.739 559.531 274.431 559.328 274.189 559.096 273.911 558.76 273.723 558.37 273.708L558.137 273.7 556.476 273.64 546.048 273.264 538.649 272.997 535.762 272.893 534.128 272.834 528.13 272.617 510.222 271.971 509.046 271.929 507.87 271.886 481.807 270.946C481.463 270.929 481.148 271.059 480.903 271.269L479.372 258.967 478.864 254.885 478.4 251.157 478.133 249.012 477.922 247.318 477.891 247.071 477.862 246.837C477.772 246.111 477.111 245.596 476.385 245.687 476.267 245.702 476.167 245.753 476.062 245.796 475.904 245.86 475.767 245.948 475.648 246.063 475.472 246.231 475.334 246.432 475.272 246.671 475.232 246.828 475.214 246.994 475.235 247.165L476.798 259.718 477.308 263.819 477.877 268.389 479.086 278.098 480.422 288.829C480.472 289.236 480.713 289.559 481.032 289.763 481.24 289.896 481.474 289.989 481.733 289.989 481.788 289.989 481.843 289.986 481.899 289.979 482.624 289.889 483.139 289.227 483.049 288.502L481.175 273.452C481.338 273.533 481.518 273.585 481.711 273.592L507.806 274.534 508.982 274.576 510.158 274.619 532.404 275.422 536.565 275.572ZM450.319 96.9926 398.827 111.953C397.82 112.246 397.241 113.299 397.533 114.306 397.774 115.136 398.532 115.675 399.355 115.675 399.531 115.675 399.709 115.651 399.886 115.599L451.379 100.639C452.386 100.346 452.965 99.2931 452.672 98.2859 452.38 97.2781 451.322 96.6989 450.319 96.9926ZM431.481 25.732C430.708 25.0218 429.507 25.0724 428.798 25.8464L385.302 73.216C384.593 73.9883 384.644 75.1898 385.417 75.8988 385.782 76.2338 386.241 76.3987 386.7 76.3987 387.214 76.3987 387.725 76.1924 388.099 75.7845L431.595 28.4148C432.304 27.6425 432.253 26.4411 431.481 25.732ZM354.421 0.00133294C353.372 0.022012 352.539 0.888571 352.559 1.93715L353.622 56.3484C353.643 57.3839 354.489 58.2095 355.52 58.2095 355.533 58.2095 355.546 58.2095 355.558 58.2095 356.606 58.1888 357.439 57.3223 357.419 56.2737L356.356 1.86247C356.336 0.814444 355.44-0.0383405 354.421 0.00133294ZM282.14 27.9143C281.397 27.176 280.194 27.1788 279.455 27.9229 278.716 28.6665 278.72 29.8685 279.464 30.608L317.72 68.6313C318.09 68.9991 318.574 69.183 319.058 69.183 319.546 69.183 320.034 68.9962 320.405 68.6228 321.144 67.8793 321.14 66.6772 320.396 65.9377L282.14 27.9143ZM306.371 113.779 255.806 98.0285C254.802 97.7165 253.739 98.2749 253.428 99.2765 253.116 100.278 253.675 101.342 254.676 101.654L305.241 117.404C305.429 117.463 305.619 117.49 305.806 117.49 306.615 117.49 307.365 116.969 307.619 116.156 307.931 115.155 307.371 114.091 306.371 113.779Z" fill="#B4438E" transform="matrix(1 0 0 1.00121 171.035 145.38)"/></g></g></g></g></svg>